<?xml version="1.0" standalone="no"?>
<!DOCTYPE svg PUBLIC "-//W3C//DTD SVG 20010904//EN"
 "http://www.w3.org/TR/2001/REC-SVG-20010904/DTD/svg10.dtd">
<svg version="1.0" xmlns="http://www.w3.org/2000/svg"
 width="700.000000pt" height="700.000000pt" viewBox="0 0 700.000000 700.000000"
 preserveAspectRatio="xMidYMid meet">
<metadata>
Created by potrace 1.14, written by Peter Selinger 2001-2017
</metadata>
<g transform="translate(0.000000,700.000000) scale(0.100000,-0.100000)"
fill="#000000" stroke="none">
<path d="M3128 6995 c-2 -1 -64 -6 -138 -10 -141 -8 -152 -9 -265 -19 -66 -6
-116 -12 -175 -21 -14 -2 -50 -7 -80 -10 -139 -16 -385 -64 -550 -106 -293
-77 -521 -161 -760 -280 -291 -145 -516 -305 -731 -519 -237 -236 -345 -424
-401 -698 -21 -104 -21 -127 -22 -856 -1 -811 -1 -817 53 -933 67 -143 247
-268 397 -277 18 -1 36 -5 41 -10 4 -4 8 -133 8 -287 0 -242 -2 -279 -15 -280
-240 -18 -438 -191 -477 -417 -3 -21 -6 -437 -7 -927 -1 -707 2 -902 12 -950
30 -135 132 -270 252 -333 127 -67 -123 -62 3255 -59 2890 2 3073 3 3119 20
153 54 267 169 322 324 l23 68 1 925 c0 1006 2 957 -57 1078 -67 137 -233 250
-390 266 -21 3 -41 5 -44 5 -9 1 -9 571 -1 572 4 1 27 3 50 4 130 10 231 53
308 129 57 58 109 153 120 222 3 20 7 45 9 55 2 10 4 375 5 811 2 836 2 832
-44 993 -57 200 -152 352 -336 535 -134 133 -410 356 -470 378 -8 3 -17 8 -20
12 -16 20 -394 220 -415 220 -3 0 -25 8 -48 19 -137 62 -496 176 -647 206 -8
2 -33 8 -55 13 -22 6 -53 13 -70 16 -16 3 -82 14 -145 25 -109 20 -142 25
-235 37 -22 3 -51 7 -65 9 -14 2 -54 6 -90 10 -36 4 -76 8 -90 10 -14 2 -72 7
-130 11 -58 3 -123 8 -145 11 -47 4 -852 13 -857 8z"/>
</g>
</svg>
