<?xml version="1.0" standalone="no"?>
<!DOCTYPE svg PUBLIC "-//W3C//DTD SVG 20010904//EN"
 "http://www.w3.org/TR/2001/REC-SVG-20010904/DTD/svg10.dtd">
<svg version="1.0" xmlns="http://www.w3.org/2000/svg"
 width="700.000000pt" height="700.000000pt" viewBox="0 0 700.000000 700.000000"
 preserveAspectRatio="xMidYMid meet">
<metadata>
Created by potrace 1.14, written by Peter Selinger 2001-2017
</metadata>
<g transform="translate(0.000000,700.000000) scale(0.100000,-0.100000)"
fill="#000000" stroke="none">
<path d="M3128 6995 c-2 -2 -62 -6 -134 -9 -72 -4 -139 -8 -150 -10 -10 -2
-55 -7 -99 -11 -88 -8 -100 -9 -215 -25 -268 -37 -438 -72 -675 -139 -431
-122 -819 -317 -1125 -565 -370 -300 -547 -584 -586 -936 -4 -36 -7 -381 -7
-766 0 -531 3 -715 13 -755 46 -197 232 -361 421 -371 l46 -3 -1 -410 -1 -410
-25 -1 c-124 -5 -260 -74 -344 -177 -31 -38 -84 -136 -90 -170 -2 -7 -6 -30
-11 -52 -4 -21 -8 -426 -8 -900 0 -769 2 -867 17 -924 42 -164 173 -294 345
-345 50 -15 329 -16 3020 -14 2901 3 2967 3 3016 22 160 62 285 205 315 361
18 94 10 1819 -9 1860 -7 17 -25 54 -39 83 -62 132 -229 244 -375 254 -21 1
-40 5 -42 8 -3 5 -9 757 -6 800 1 11 16 16 61 18 207 9 364 142 408 347 7 32
12 272 13 680 1 347 2 673 2 725 1 90 -10 248 -19 261 -2 4 -6 24 -10 45 -9
59 -62 202 -101 274 -59 109 -122 190 -238 305 -322 322 -712 553 -1194 709
-122 39 -299 89 -366 102 -28 5 -115 23 -145 30 -45 9 -64 13 -160 28 -115 18
-164 25 -210 31 -19 2 -57 6 -85 9 -113 13 -155 17 -350 32 -64 5 -853 13
-857 9z"/>
</g>
</svg>
