<?xml version="1.0" encoding="UTF-8" standalone="no"?>
<!-- Created with Inkscape (http://www.inkscape.org/) -->

<svg
   width="512"
   height="512"
   viewBox="0 0 135.46666 135.46667"
   version="1.1"
   id="svg5"
   inkscape:version="1.1.2 (0a00cf5339, 2022-02-04, custom)"
   sodipodi:docname="logo.svg"
   xmlns:inkscape="http://www.inkscape.org/namespaces/inkscape"
   xmlns:sodipodi="http://sodipodi.sourceforge.net/DTD/sodipodi-0.dtd"
   xmlns="http://www.w3.org/2000/svg"
   xmlns:svg="http://www.w3.org/2000/svg">
  <sodipodi:namedview
     id="namedview7"
     pagecolor="#ffffff"
     bordercolor="#666666"
     borderopacity="1.0"
     inkscape:pageshadow="2"
     inkscape:pageopacity="0.0"
     inkscape:pagecheckerboard="0"
     inkscape:document-units="mm"
     showgrid="true"
     units="px"
     inkscape:snap-bbox="false"
     inkscape:bbox-paths="false"
     inkscape:bbox-nodes="false"
     inkscape:snap-bbox-edge-midpoints="false"
     inkscape:snap-bbox-midpoints="false"
     inkscape:snap-object-midpoints="true"
     inkscape:snap-center="true"
     inkscape:snap-text-baseline="false"
     inkscape:zoom="1.0796969"
     inkscape:cx="39.362899"
     inkscape:cy="338.98402"
     inkscape:window-width="1920"
     inkscape:window-height="1017"
     inkscape:window-x="-8"
     inkscape:window-y="-8"
     inkscape:window-maximized="1"
     inkscape:current-layer="layer1">
    <inkscape:grid
       type="xygrid"
       id="grid824"
       empspacing="2" />
  </sodipodi:namedview>
  <defs
     id="defs2" />
  <g
     inkscape:label="Layer 1"
     inkscape:groupmode="layer"
     id="layer1">
    <g
       id="g844"
       transform="matrix(1.3047196,0,0,1.3047196,-20.639674,-20.639739)">
      <path
         style="fill:#bd493e;fill-opacity:1;stroke:none;stroke-width:0.932218;stroke-linecap:round;stroke-linejoin:round;stroke-miterlimit:4;stroke-dasharray:none;stroke-opacity:1;paint-order:stroke markers fill"
         d="m 26.653912,71.245111 c -0.05552,2.834491 -0.0086,5.686164 -0.02389,8.527255 0.313647,0.270371 0.87197,0.119648 1.280152,0.258909 3.29285,0.61262 6.213219,3.056186 7.308304,6.261483 0.738463,1.879161 0.437427,3.938681 0.556193,5.905646 0.101141,0.985096 -0.207233,2.067901 0.384015,2.938639 0.86403,1.951055 3.390872,2.952788 5.327649,2.002269 1.14006,-0.502941 1.956338,-1.578139 2.292817,-2.749846 0.106091,-2.319689 -0.05595,-4.678134 0.310118,-6.964896 0.672785,-3.234633 3.199046,-5.982248 6.30487,-7.055004 3.492207,-1.197237 7.626922,-0.183453 10.107281,2.564637 1.648502,1.739017 2.534094,4.097684 2.57836,6.472789 0.0043,1.131515 0.17689,2.324966 0.952776,3.205776 1.351016,1.739917 4.167166,1.961486 5.776351,0.458075 1.209461,-0.996368 1.475012,-2.651141 1.428336,-4.131413 0.116851,-4.398852 3.772391,-8.371944 8.101771,-8.947447 3.202339,-0.521306 6.63229,0.723008 8.742256,3.216303 0.969776,1.142475 1.693219,2.513599 2.079279,3.964661 0.318575,2.432277 0.164409,4.898989 0.249368,7.345754 0.07941,1.205112 -0.09985,2.456867 0.224943,3.632217 0.555139,1.671911 2.280896,2.937752 4.071835,2.705162 2.028472,0.0194 3.832818,-1.85438 3.780052,-3.87844 0.17151,-3.09299 -0.103509,-6.227534 0.217088,-9.296523 0.711156,-4.068458 4.388714,-7.469648 8.555254,-7.758803 0.45757,-0.101938 1.03018,0.02996 1.4346,-0.187263 0.19475,-1.673396 0.0637,-3.37887 0.10588,-5.064207 -0.0293,-1.145294 0.0585,-2.31765 -0.0441,-3.445935 -7.03802,-0.05563 -14.093256,-0.008 -21.137881,-0.02387 -20.291301,0 -40.582602,0 -60.873903,0 l -0.08371,0.04099 z"
         id="path6691" />
      <path
         style="fill:#eba754;fill-opacity:1;stroke:none;stroke-width:0.932218;stroke-linecap:round;stroke-linejoin:round;stroke-miterlimit:4;stroke-dasharray:none;stroke-opacity:1;paint-order:stroke markers fill"
         d="m 66.756801,21.448962 c -9.688705,0.0876 -19.549631,1.183962 -28.574223,4.900774 -5.151102,2.116704 -9.961551,5.247777 -13.550961,9.54953 -1.143396,1.318933 -2.136586,2.806707 -2.563188,4.520702 -0.707303,1.971206 -0.437793,4.094066 -0.518879,6.14336 -0.0011,5.79752 -0.102433,11.5969 0.02152,17.393361 0.01937,0.910452 0.857595,1.80446 1.814374,1.605162 21.11029,0.112568 42.221161,0.07549 63.331709,0.0739 8.64714,-0.02613 17.296667,0.0198 25.942277,-0.0903 0.8485,-0.251378 1.3269,-1.175944 1.20916,-2.028302 0.0863,-6.570023 0.0777,-13.141927 0.0215,-19.712202 0.029,-2.171946 -0.33727,-4.429837 -1.54542,-6.276133 -1.9581,-2.800138 -4.54167,-5.125996 -7.31902,-7.093604 C 98.381693,25.911298 90.472587,23.659301 82.595931,22.487532 77.35434,21.728519 72.051589,21.423089 66.757361,21.448949 Z"
         id="path6730" />
      <path
         style="fill:#eba754;fill-opacity:1;stroke:none;stroke-width:0.932218;stroke-linecap:round;stroke-linejoin:round;stroke-miterlimit:4;stroke-dasharray:none;stroke-opacity:1;paint-order:stroke markers fill"
         d="m 109.41001,85.380428 c -1.42991,-0.0086 -3.046,0.09391 -4.0832,1.220074 -0.90261,0.798299 -1.24617,2.020656 -1.20107,3.193177 -0.1035,2.872866 0.10222,5.782097 -0.17839,8.632086 -0.47905,3.233195 -2.79136,6.087105 -5.802156,7.314905 -1.675229,0.83135 -3.601719,0.66817 -5.420526,0.59065 -3.401395,-0.64485 -6.355033,-3.2162 -7.392381,-6.518614 -0.339943,-0.942873 -0.515607,-1.920168 -0.446013,-2.924195 -0.07704,-2.808369 0.02755,-5.626567 -0.188726,-8.428667 -0.220145,-1.293688 -1.332445,-2.283334 -2.484405,-2.797202 -0.824865,-0.238157 -1.721841,-0.178548 -2.565793,-0.07775 -1.727672,0.507354 -2.946257,2.239494 -2.864009,4.036039 0.05853,3.198932 -1.412024,6.433159 -4.097206,8.239026 -1.536084,1.060025 -3.347445,1.799067 -5.236643,1.720967 -1.633136,0.0819 -3.252544,-0.192901 -4.694329,-0.992783 -3.052111,-1.594914 -5.2063,-4.902499 -5.193926,-8.354352 -0.0043,-1.179626 -0.167207,-2.443094 -1.006338,-3.344856 -0.731233,-0.874729 -1.829352,-1.521853 -3.003284,-1.378092 -1.625347,-0.197764 -3.16072,0.920996 -3.787605,2.3754 -0.478938,0.798632 -0.178181,1.78534 -0.289674,2.671782 -0.109749,2.42346 0.15946,5.008299 -1.078149,7.199247 -1.739572,3.63619 -5.972136,5.80852 -9.938697,5.20913 -4.143473,-0.54493 -7.733314,-4.120294 -8.141625,-8.298926 -0.156447,-2.079862 -0.01076,-4.17921 -0.254533,-6.250966 -0.475947,-1.871395 -2.414596,-3.139115 -4.314617,-2.994353 -1.050389,0.04885 -2.143322,-0.133142 -3.167349,0.143083 -0.766589,0.372169 -1.129171,1.240892 -1.021143,2.061366 -0.08608,8.379381 -0.0065,16.759536 -0.0086,25.139216 0.294989,0.64633 0.897363,1.26848 1.673873,1.16907 7.492446,0.13787 14.987625,0.0628 22.481147,0.0896 21.24638,-0.0108 42.492931,0.0375 63.739207,-0.0379 1.14832,-0.0555 2.32596,0.0681 3.45685,-0.1478 0.62028,-0.32241 1.12956,-0.99968 0.98099,-1.72551 -0.0108,-8.35074 0.0938,-16.702623 -0.0263,-25.05266 -0.0194,-0.94845 -0.94298,-1.729092 -1.88336,-1.633203 -0.85321,-0.03723 -1.70779,-0.05023 -2.56179,-0.04698 z"
         id="path6806" />
      <circle
         style="fill:#4d4d4d;fill-opacity:1;stroke:none;stroke-width:5.19761;stroke-linecap:round;stroke-linejoin:round;stroke-miterlimit:4;stroke-dasharray:none;stroke-opacity:1;paint-order:stroke markers fill"
         id="path6947"
         cx="35.501068"
         cy="46.178288"
         r="2.8468511" />
      <circle
         style="fill:#4d4d4d;fill-opacity:1;stroke:none;stroke-width:5.19761;stroke-linecap:round;stroke-linejoin:round;stroke-miterlimit:4;stroke-dasharray:none;stroke-opacity:1;paint-order:stroke markers fill"
         id="circle8086"
         cx="51.443417"
         cy="41.623329"
         r="2.8468511" />
      <circle
         style="fill:#4d4d4d;fill-opacity:1;stroke:none;stroke-width:5.19761;stroke-linecap:round;stroke-linejoin:round;stroke-miterlimit:4;stroke-dasharray:none;stroke-opacity:1;paint-order:stroke markers fill"
         id="circle8086-5"
         cx="65.108315"
         cy="27.958439"
         r="2.8468511" />
      <circle
         style="fill:#4d4d4d;fill-opacity:1;stroke:none;stroke-width:5.19761;stroke-linecap:round;stroke-linejoin:round;stroke-miterlimit:4;stroke-dasharray:none;stroke-opacity:1;paint-order:stroke markers fill"
         id="circle8086-9"
         cx="51.443417"
         cy="57.565697"
         r="2.8468511" />
      <circle
         style="fill:#4d4d4d;fill-opacity:1;stroke:none;stroke-width:5.19761;stroke-linecap:round;stroke-linejoin:round;stroke-miterlimit:4;stroke-dasharray:none;stroke-opacity:1;paint-order:stroke markers fill"
         id="circle8088"
         cx="101.54798"
         cy="53.010738"
         r="2.8468511" />
      <circle
         style="fill:#4d4d4d;fill-opacity:1;stroke:none;stroke-width:5.19761;stroke-linecap:round;stroke-linejoin:round;stroke-miterlimit:4;stroke-dasharray:none;stroke-opacity:1;paint-order:stroke markers fill"
         id="circle8090"
         cx="87.883118"
         cy="37.068363"
         r="2.8468511" />
      <circle
         style="fill:#4d4d4d;fill-opacity:1;stroke:none;stroke-width:5.19761;stroke-linecap:round;stroke-linejoin:round;stroke-miterlimit:4;stroke-dasharray:none;stroke-opacity:1;paint-order:stroke markers fill"
         id="circle8092"
         cx="76.495697"
         cy="53.010738"
         r="2.8468511" />
      <path
         id="rect952"
         style="color:#000000;fill:#4d4d4d;stroke-width:8.13335;stroke-linecap:round;stroke-linejoin:round;-inkscape-stroke:none;paint-order:stroke markers fill"
         d="m 249.31836,59.8125 c -52.81761,0.502477 -111.12619,9.53128 -153.931641,43.82031 -8.915377,7.1416 -22.6726,19.2921 -29.611328,35.16992 -6.888628,15.76302 -5.942959,31.11232 -5.669922,34.15821 v 68.35547 c 0,15.3122 12.660391,27.97461 27.972656,27.97461 H 423.78516 c 19.84524,0 27.97656,-12.66241 27.97656,-27.97461 V 173.0625 c 0.38634,-3.58528 1.53313,-18.90778 -4.83008,-34.57812 -6.0469,-14.89171 -18.67243,-25.68819 -26.03711,-31.96094 C 376.89892,69.050765 314.37999,60.408222 259.80078,59.820312 c -3.46619,-0.03741 -6.96117,-0.04179 -10.48242,-0.0078 z m 5.24219,21.490234 h 0.002 c 1.67059,6.5e-5 3.33705,0.0072 4.99805,0.02539 52.36702,0.564045 109.96278,9.710871 147.38867,41.587896 6.62755,5.64486 16.95596,16.05191 20.04297,23.65429 4.72305,11.63117 3.33789,24.51172 3.33789,24.51172 -0.034,0.45905 -0.034,0.91985 0,1.37891 h -0.0977 v 0.004 68.85157 c 0,3.76266 -2.68463,6.46679 -6.44726,6.46679 H 88.076172 c -3.762656,0 -6.447266,-2.70413 -6.447266,-6.46679 v -68.85157 -0.004 h -0.0078 c 0.0021,-0.38178 -0.01597,-0.76275 -0.05664,-1.14258 0,0 -1.094533,-12.42719 3.921875,-23.90625 4.031626,-9.22551 15.862689,-20.98938 23.351559,-26.98828 37.89055,-30.351921 93.93433,-39.123051 145.72266,-39.121097 z M 88.078125,269.29492 v 32.27539 h -0.002 c -15.312261,0 -27.970703,12.67998 -27.970703,27.99219 v 94.67773 c 0,15.31223 12.658442,27.97071 27.970703,27.97071 H 423.78516 c 15.31219,0 27.97656,-12.65848 27.97656,-27.97071 V 329.5625 c 0,-15.31221 -12.66437,-27.99219 -27.97656,-27.99219 h -0.004 v -32.27539 h -12.91211 v 32.2793 h -2.15234 v 0.004 c -20.07331,0.004 -36.58008,16.50975 -36.58008,36.58399 v 27.97461 0.004 c 0,8.44688 -6.61169,15.06055 -15.0586,15.06055 -8.4468,0 -15.07617,-6.61367 -15.07617,-15.06055 v -0.004 h 0.008 v -27.97461 h -0.004 v -0.004 c 0,-20.07688 -16.50517,-36.58789 -36.58203,-36.58789 -20.07687,0 -36.58399,16.51101 -36.58399,36.58789 v 0.004 h 0.004 v 2.15234 0.004 c 0,8.44687 -6.61169,15.05859 -15.05859,15.05859 -8.44682,0 -15.07618,-6.61172 -15.07618,-15.05859 v -0.004 h 0.008 v -2.15234 h -0.0156 v -0.004 c 0,-20.07688 -16.5072,-36.58789 -36.58398,-36.58789 -20.07686,0 -36.58203,16.51101 -36.58203,36.58789 v 0.004 h 0.0156 v 15.0625 0.004 c 0,8.44687 -6.6117,15.06054 -15.05859,15.06054 -8.44682,0 -15.07617,-6.61367 -15.07617,-15.06054 v -0.004 h 0.008 v -15.0625 h 0.008 c 0,-20.07686 -16.51102,-36.58398 -36.58789,-36.58399 h -0.0039 v 21.52344 h 0.0039 c 8.4469,0 15.06055,6.61368 15.06055,15.06055 v 15.0625 h 0.004 v 0.004 c 0,20.07688 16.5072,36.58789 36.58399,36.58789 20.07686,0 36.58203,-16.51101 36.58203,-36.58789 v -0.004 h -0.004 v -15.0625 h -0.008 v -0.004 c 0,-8.44687 6.6117,-15.06054 15.05859,-15.06054 8.44682,0 15.07618,6.61367 15.07618,15.06054 v 0.004 2.15234 h 0.004 v 0.004 c 0,20.07688 16.5072,36.58594 36.58399,36.58594 20.07686,0 36.58203,-16.50906 36.58203,-36.58594 v -0.004 h -0.004 v -2.15234 -0.004 c 0,-8.44687 6.61365,-15.06054 15.06055,-15.06054 8.44689,0 15.07617,6.61367 15.07617,15.06054 v 0.004 h -0.008 v 27.97461 h 0.004 v 0.004 c 0,20.07686 16.50526,36.5879 36.58203,36.5879 20.07687,0 36.58399,-16.51104 36.58399,-36.5879 v -0.004 h -0.004 v -27.97461 h 0.008 c 0,-8.44687 6.61172,-15.06055 15.05859,-15.06055 h 0.004 v -0.008 h 6.44531 8.61133 c 3.76267,0 6.44726,2.70609 6.44726,6.46875 v 94.67773 c 0,3.76268 -2.68459,6.44727 -6.44726,6.44727 H 88.076172 c -3.762652,0 -6.447266,-2.68459 -6.447266,-6.44727 V 329.5625 c 0,-3.76266 2.684614,-6.46875 6.447266,-6.46875 l 8.609375,-0.004 v 0.004 h 2.150391 v -21.51953 h 2.152342 v -32.2793 z"
         transform="scale(0.26458333)" />
    </g>
  </g>
</svg>
